<?xml version="1.0" encoding="UTF-8"?>
<svg version="1.1" xmlns="http://www.w3.org/2000/svg" width="1024" height="1536">
<path d="M0 0 C337.92 0 675.84 0 1024 0 C1024 506.88 1024 1013.76 1024 1536 C686.08 1536 348.16 1536 0 1536 C0 1029.12 0 522.24 0 0 Z " fill="#011C39" transform="translate(0,0)"/>
<path d="M0 0 C1.48016602 -0.0309375 1.48016602 -0.0309375 2.99023438 -0.0625 C15.3439816 -0.12722166 28.26503296 3.33576785 37.6875 11.6875 C38.43 12.533125 39.1725 13.37875 39.9375 14.25 C41.19816421 15.34515031 42.47016999 16.4273101 43.75 17.5 C53.27091817 25.82185517 63.48342811 37.27922134 65.375 50.25 C64.78979216 54.26285374 62.83391063 55.54119259 59.9375 58.25 C59.22787109 57.01636719 59.22787109 57.01636719 58.50390625 55.7578125 C53.99435576 48.14519901 49.21778531 41.55259538 42.9375 35.25 C42.32519531 34.61449219 41.71289062 33.97898437 41.08203125 33.32421875 C30.64345275 23.286268 15.82335211 17.68639697 1.5 17.875 C0.62279297 17.86339844 -0.25441406 17.85179687 -1.15820312 17.83984375 C-14.60339561 17.89929191 -27.5477649 23.7352649 -37.0625 33.25 C-42.30140838 39.43846052 -44.93075564 44.08184937 -45.0625 52.25 C-44.63582031 51.77691406 -44.20914062 51.30382812 -43.76953125 50.81640625 C-35.30099315 41.85896285 -24.78365805 34.31360706 -13.0625 30.25 C-12.0725 30.25 -11.0825 30.25 -10.0625 30.25 C-9.7325 27.61 -9.4025 24.97 -9.0625 22.25 C-7.375 22.375 -7.375 22.375 -5.0625 23.25 C-3.93597588 24.61548379 -2.81499474 25.98592413 -1.72265625 27.37890625 C7.09553575 37.31752735 19.3206938 44.23243699 31.2109375 49.79296875 C36.75343262 52.75478921 39.87204052 56.23267335 43.25 61.5 C44.29607422 63.11648438 44.29607422 63.11648438 45.36328125 64.765625 C45.88277344 65.58546875 46.40226562 66.4053125 46.9375 67.25 C50.06040635 66.76421457 52.93330359 66.2513988 55.9375 65.25 C56.03546875 66.04277344 56.1334375 66.83554687 56.234375 67.65234375 C56.38390625 68.81894531 56.5334375 69.98554687 56.6875 71.1875 C56.77112793 71.84210205 56.85475586 72.4967041 56.94091797 73.17114258 C57.51475305 77.50433315 58.19628674 81.80560295 58.9609375 86.109375 C64.82109258 119.48281485 64.82109258 119.48281485 60.9375 127.25 C59.98193626 132.84687331 62.32683695 135.7246001 65.40234375 140.1015625 C65.90894531 140.81054688 66.41554688 141.51953125 66.9375 142.25 C70.57717746 147.83083877 70.19380404 152.81789454 69.9375 159.25 C62.43393565 157.25164566 55.57508497 154.43570338 48.5625 151.125 C46.63945654 150.22349357 44.71502989 149.32493027 42.7890625 148.4296875 C41.95197754 148.03507324 41.11489258 147.64045898 40.25244141 147.23388672 C38.14910627 146.33993601 36.16735126 145.72805444 33.9375 145.25 C33.06039871 139.95852009 32.77724487 134.85890615 32.76953125 129.5 C32.76620285 128.68305664 32.76287445 127.86611328 32.75944519 127.02441406 C32.75440946 125.30664631 32.75203582 123.58886888 32.75219727 121.87109375 C32.75000641 119.25764785 32.73180318 116.64462167 32.71289062 114.03125 C32.70995677 112.3541681 32.70797192 110.67708421 32.70703125 109 C32.69984573 108.22688477 32.69266022 107.45376953 32.68525696 106.65722656 C32.70516663 101.88359683 33.21957267 97.77127401 34.9375 93.25 C38 90.9375 38 90.9375 40.9375 89.25 C42.08102916 86.96294169 42.04084439 85.65735238 42 83.125 C41.9690625 81.206875 41.9690625 81.206875 41.9375 79.25 C39.9575 78.59 37.9775 77.93 35.9375 77.25 C35.9375 76.59 35.9375 75.93 35.9375 75.25 C34.9475 74.92 33.9575 74.59 32.9375 74.25 C31.4375 71.7734375 31.4375 71.7734375 29.9375 68.625 C29.15052734 66.99691406 29.15052734 66.99691406 28.34765625 65.3359375 C27.2750717 62.9887303 26.2949723 60.65769894 25.375 58.25 C22.37372355 51.98646655 16.23934972 49.76891441 10.1875 47.125 C9.04667969 46.60486328 9.04667969 46.60486328 7.8828125 46.07421875 C-1.32657276 41.93310587 -1.32657276 41.93310587 -11.14453125 41.9375 C-12.49611328 42.5871875 -12.49611328 42.5871875 -13.875 43.25 C-14.87917969 43.71792969 -15.88335937 44.18585937 -16.91796875 44.66796875 C-17.95566406 45.19003906 -18.99335938 45.71210937 -20.0625 46.25 C-21.17238281 46.80300781 -22.28226562 47.35601563 -23.42578125 47.92578125 C-25.51290059 48.97309024 -27.59312471 50.0343281 -29.6640625 51.11328125 C-32.0625 52.25 -32.0625 52.25 -34.0625 52.25 C-34.0625 54.56 -34.0625 56.87 -34.0625 59.25 C-32.9075 58.755 -31.7525 58.26 -30.5625 57.75 C-25.22509066 55.7567374 -20.67312683 55.47236647 -15.125 57.125 C-13.0625 58.25 -13.0625 58.25 -12.0625 60.25 C-11.90905791 62.13472859 -11.81290429 64.02427874 -11.74609375 65.9140625 C-11.70419922 67.03554688 -11.66230469 68.15703125 -11.61914062 69.3125 C-11.57982422 70.488125 -11.54050781 71.66375 -11.5 72.875 C-11.45681641 74.05835938 -11.41363281 75.24171875 -11.36914062 76.4609375 C-11.26282574 79.39050328 -11.16079358 82.32015588 -11.0625 85.25 C-8.7525 85.58 -6.4425 85.91 -4.0625 86.25 C-4.7225 87.24 -5.3825 88.23 -6.0625 89.25 C-10.40836828 89.64507893 -12.38253497 89.70331002 -16.0625 87.25 C-16.5390625 84.53515625 -16.5390625 84.53515625 -16.6875 81.3125 C-16.85701907 77.99073351 -17.00767084 75.41448749 -18.0625 72.25 C-21.58929099 69.89880601 -23.09129485 70.03556548 -27.25 70.125 C-28.33667969 70.14304687 -29.42335938 70.16109375 -30.54296875 70.1796875 C-31.79013672 70.21449219 -31.79013672 70.21449219 -33.0625 70.25 C-31.12467617 65.40544041 -31.12467617 65.40544041 -29.0625 63.25 C-25.61094225 62.29784614 -22.68869693 62.29771312 -19.0625 62.25 C-24.0125 62.25 -28.9625 62.25 -34.0625 62.25 C-33.84429897 66.78601437 -33.61825654 71.32030027 -33.37280273 75.85473633 C-33.29179464 77.393568 -33.21519976 78.9326392 -33.14331055 80.47192383 C-32.56501227 92.75976517 -31.48196503 103.62001103 -23.0625 113.25 C-13.80607569 120.68318921 -5.59243584 121.12155027 5.9375 120.25 C15.09296076 118.63311885 21.81071051 114.02999463 28.9375 108.25 C28.9375 111.25 28.9375 111.25 27.42578125 113.16015625 C21.02603361 119.49096585 14.12883441 124.87207449 6.9375 130.25 C-2.42322754 137.00314401 -2.42322754 137.00314401 -9.0625 146.25 C-8.65953342 150.50532711 -6.10938553 152.43749028 -3.0625 155.25 C-15.80527993 154.78662618 -24.51719824 144.83963338 -33.0625 136.25 C-34.33736585 138.91480272 -35.60745466 141.58171716 -36.875 144.25 C-37.23142578 144.99378906 -37.58785156 145.73757813 -37.95507812 146.50390625 C-40.24950941 151.34536676 -42.2466007 156.20901771 -44.0625 161.25 C-44.3925 161.25 -44.7225 161.25 -45.0625 161.25 C-45.57918617 151.949649 -43.42079134 144.88888641 -38.0625 137.25 C-38.95710938 136.8375 -39.85171875 136.425 -40.7734375 136 C-57.54071456 128.07707766 -67.42151766 117.14750684 -76.67578125 101.30078125 C-79.23885578 96.91666009 -81.92405366 92.6126529 -84.625 88.3125 C-85.0669873 87.60786621 -85.50897461 86.90323242 -85.96435547 86.17724609 C-86.9958937 84.53409149 -88.02901237 82.8919292 -89.0625 81.25 C-88.94656494 81.9298999 -88.83062988 82.6097998 -88.71118164 83.31030273 C-88.17981073 86.43559219 -87.65238115 89.56153491 -87.125 92.6875 C-86.94259766 93.75677734 -86.76019531 94.82605469 -86.57226562 95.92773438 C-81.58432563 125.58330488 -82.97498246 157.36422875 -100.0625 183.25 C-106.86662371 192.65206186 -106.86662371 192.65206186 -110.0625 194.25 C-110.0625 194.91 -110.0625 195.57 -110.0625 196.25 C-105.99175308 197.22697926 -103.81990362 197.6209732 -100 195.75 C-85.83119035 183.6914386 -78.92858104 164.44745499 -73.0625 147.25 C-72.7325 147.25 -72.4025 147.25 -72.0625 147.25 C-72.69192454 163.01708467 -77.07410008 178.3418373 -80.63500977 193.64013672 C-84.96703795 212.35957748 -89.03133801 231.16294484 -92.5 250.0625 C-92.66387207 250.95098633 -92.82774414 251.83947266 -92.99658203 252.75488281 C-93.64165215 256.37448294 -94.0625 259.54562922 -94.0625 263.25 C-93.25167969 262.48816406 -92.44085938 261.72632813 -91.60546875 260.94140625 C-86.37562405 256.05512799 -81.14915261 251.23087499 -75.5625 246.75 C-71.3958379 243.40698041 -67.45830188 239.89884863 -63.5625 236.25 C-58.80161006 231.79125556 -53.8978218 227.6120217 -48.80859375 223.52734375 C-45.79929636 221.03172444 -42.92331559 218.41214146 -40.0625 215.75 C-35.50663613 211.51595833 -30.80978139 207.5206777 -25.96484375 203.62109375 C-22.67286186 200.9316819 -19.46261536 198.15811421 -16.25 195.375 C-9.9492549 189.94181109 -3.50097418 184.73647533 3.09716797 179.66943359 C5.02363462 178.18356504 6.93528787 176.67973755 8.84765625 175.17578125 C15.40658441 170.07394961 21.98339749 165.37888107 29.3125 161.4375 C30.26757446 160.92183472 30.26757446 160.92183472 31.24194336 160.39575195 C32.77261015 159.60933701 34.35216733 158.91940991 35.9375 158.25 C36.5975 158.58 37.2575 158.91 37.9375 159.25 C37.19886719 159.79527344 36.46023438 160.34054687 35.69921875 160.90234375 C28.6167006 166.16698557 21.71125998 171.58973481 14.9375 177.25 C14.41510742 177.68602539 13.89271484 178.12205078 13.35449219 178.57128906 C6.94679236 183.92817181 0.62112311 189.35542093 -5.55078125 194.984375 C-7.62323557 196.85377392 -9.71670386 198.69013796 -11.82421875 200.51953125 C-16.16502304 204.31032121 -20.37307559 208.23082139 -24.5625 212.1875 C-25.27019531 212.85201172 -25.97789062 213.51652344 -26.70703125 214.20117188 C-33.38090746 220.49072066 -39.91563047 226.83518412 -45.890625 233.796875 C-48.23903812 236.44939917 -50.65728172 239.02526769 -53.08837891 241.60180664 C-59.37611434 248.26893144 -65.40424724 255.03263015 -71.0625 262.25 C-71.87203125 263.26449219 -72.6815625 264.27898437 -73.515625 265.32421875 C-84.45983678 279.16388053 -94.9996229 293.33067956 -97.0625 311.25 C-96.65 310.82589844 -96.2375 310.40179687 -95.8125 309.96484375 C-95.235 309.37832031 -94.6575 308.79179688 -94.0625 308.1875 C-93.505625 307.61902344 -92.94875 307.05054688 -92.375 306.46484375 C-90.40766288 304.58058675 -88.40401818 302.78880711 -86.34765625 301.00390625 C-81.96315575 297.1914516 -77.72293059 293.23980954 -73.5 289.25 C-72.78392578 288.57710937 -72.06785156 287.90421875 -71.33007812 287.2109375 C-68.01326377 284.084259 -64.73338741 280.93557608 -61.53515625 277.6875 C-59.22165124 275.35270406 -56.84309877 273.16542484 -54.34375 271.03125 C-48.7922871 266.23923578 -43.70933924 260.96677364 -38.5625 255.75 C-32.89093626 250.00137198 -27.24454958 244.30978269 -21.09960938 239.06005859 C-16.73090086 235.17827469 -12.67387971 230.96272268 -8.5625 226.8125 C-7.6446875 225.89017578 -6.726875 224.96785156 -5.78125 224.01757812 C-3.53934945 221.76400101 -1.299834 219.50810925 0.9375 217.25 C0.9375 221.00960805 0.05108263 221.58427569 -2.375 224.375 C-12.4123499 236.61352312 -20.0277562 250.50922407 -27.70703125 264.29296875 C-29.83593126 268.10254685 -32.01239727 271.87358647 -34.26171875 275.61328125 C-51.62825467 304.52632908 -66.92737782 334.77134242 -79.0625 366.25 C-79.49481934 367.36777832 -79.92713867 368.48555664 -80.37255859 369.63720703 C-87.25304208 387.62107407 -93.53871201 406.08922369 -96.0625 425.25 C-95.76182617 424.77393311 -95.46115234 424.29786621 -95.15136719 423.80737305 C-94.72500977 423.13230713 -94.29865234 422.45724121 -93.859375 421.76171875 C-93.13947388 420.62186523 -93.13947388 420.62186523 -92.4050293 419.45898438 C-91.33099773 417.75844812 -90.25694119 416.05792763 -89.18286133 414.35742188 C-86.40128028 409.95348782 -83.62006487 405.54932398 -80.83984375 401.14453125 C-80.32131836 400.32315674 -79.80279297 399.50178223 -79.26855469 398.65551758 C-78.2911823 397.107278 -77.31395694 395.55894559 -76.33691406 394.01049805 C-73.78470698 389.96800678 -71.22433057 385.93086581 -68.65625 381.8984375 C-59.40318325 367.36133276 -50.18117481 352.84345658 -41.83129883 337.76220703 C-41.37650146 336.9473584 -40.9217041 336.13250977 -40.453125 335.29296875 C-39.8657959 334.22598755 -39.8657959 334.22598755 -39.26660156 333.13745117 C-38.04688945 331.22553017 -36.7240293 329.78448177 -35.0625 328.25 C-36.32377034 332.26930722 -37.80408381 335.96264323 -39.71484375 339.71484375 C-40.23796143 340.74955811 -40.7610791 341.78427246 -41.30004883 342.8503418 C-42.14152466 344.50223511 -42.14152466 344.50223511 -43 346.1875 C-47.2297302 354.55780918 -51.37865603 362.95288404 -55.375 371.4375 C-64.10049817 389.85907817 -73.54045006 407.96033567 -83.375 425.8125 C-95.93568841 447.00977325 -95.93568841 447.00977325 -103.0625 470.25 C-103.23869873 471.52979736 -103.23869873 471.52979736 -103.41845703 472.83544922 C-104.25350121 479.00862861 -105.00144351 485.18995787 -105.72167969 491.37744141 C-106.19187402 495.34041167 -106.7134464 499.29554613 -107.25 503.25 C-107.40855469 504.425625 -107.56710937 505.60125 -107.73046875 506.8125 C-107.84003906 507.616875 -107.94960938 508.42125 -108.0625 509.25 C-91.48216525 502.2862594 -76.74785952 487.24603677 -66.0625 473.25 C-65.41925781 472.42242188 -64.77601563 471.59484375 -64.11328125 470.7421875 C-38.56709841 436.85333643 -22.70211674 394.90072613 -8.7364502 355.15716553 C-7.80728112 352.52777357 -6.86170191 349.90440415 -5.91589355 347.28096008 C1.30817966 327.2370317 7.97050753 307.03167803 14.51130676 286.756073 C31.49403504 234.14110924 31.49403504 234.14110924 41.9375 212.25 C42.2675 212.91 42.5975 213.57 42.9375 214.25 C41.98171517 217.01963848 40.95802594 219.71776171 39.875 222.4375 C35.64467735 233.49621291 32.73441757 244.7592585 29.9375 256.25 C29.68048309 257.29126038 29.42346619 258.33252075 29.15866089 259.40533447 C24.81119018 277.02402271 20.97447467 294.70145069 17.63720703 312.53710938 C16.99580736 315.94060072 16.33065448 319.33807794 15.65234375 322.734375 C11.79571679 342.14626841 8.56029432 361.67067967 5.28500366 381.18731689 C4.98977663 382.93970076 4.69029209 384.6913665 4.38989258 386.44287109 C2.91501265 395.09539908 1.65338983 403.77874714 0.38793945 412.46386719 C0.00575306 415.08553597 -0.37881348 417.7068473 -0.76367188 420.328125 C-3.21440999 437.06764661 -5.5211942 453.82359245 -7.6328125 470.609375 C-7.76130081 471.63060455 -7.88978912 472.65183411 -8.02217102 473.70401001 C-8.54645098 477.8780843 -9.06976841 482.05226786 -9.58837891 486.22705078 C-9.97492837 489.33407781 -10.36599487 492.44050858 -10.7578125 495.546875 C-10.87448273 496.49560486 -10.99115295 497.44433472 -11.11135864 498.42181396 C-11.22172455 499.29162903 -11.33209045 500.16144409 -11.44580078 501.05761719 C-11.54112091 501.82176941 -11.63644104 502.58592163 -11.73464966 503.37322998 C-12.0625 505.25 -12.0625 505.25 -13.0625 507.25 C8.73347005 495.99156327 8.73347005 495.99156327 30.44580078 484.57324219 C32.22931141 483.62609075 34.0143145 482.68174756 35.80029297 481.73925781 C56.39266795 470.85589818 76.29403059 459.37262468 93.44921875 443.4296875 C94.9375 442.25 94.9375 442.25 96.9375 442.25 C96.21319902 435.14532935 95.48361017 428.04121549 94.75 420.9375 C94.63768036 419.84971252 94.52536072 418.76192505 94.40963745 417.64117432 C92.97618915 403.79755146 91.46135008 389.9684741 89.80236816 376.15014648 C84.82864246 334.61341255 81.19106401 292.92744318 77.625 251.25 C77.56008991 250.49163723 77.49517982 249.73327446 77.42830276 248.951931 C76.99499407 243.88485444 76.5649434 238.8175085 76.13671875 233.75 C75.97618515 231.85692863 75.97618515 231.85692863 75.81240845 229.9256134 C75.12252085 221.70434383 74.50685721 213.48046612 73.9375 205.25 C89.50446176 228.60044264 90.04345719 271.87130296 94.07250977 299.04956055 C94.25060432 300.24494446 94.25060432 300.24494446 94.43229675 301.46447754 C94.65349156 302.95400299 94.8722403 304.44389455 95.08808899 305.9342041 C95.51676441 308.82616762 96.01037378 311.46862135 96.9375 314.25 C97.06278076 313.52111572 97.18806152 312.79223145 97.31713867 312.04125977 C101.63069876 287.20258744 107.56960343 261.98579313 118.9375 239.25 C120.05496694 229.19279754 116.57313508 219.5481935 112.9375 210.25 C112.6075 209.92 112.2775 209.59 111.9375 209.25 C111.54296875 207.08984375 111.54296875 207.08984375 111.9375 204.25 C113.63805278 201.92620799 115.30540908 199.91083689 117.25 197.8125 C118.36452992 196.56477378 119.47644978 195.31471191 120.5859375 194.0625 C121.15022461 193.42828125 121.71451172 192.7940625 122.29589844 192.140625 C124.77340925 189.28728714 127.07425808 186.30878536 129.375 183.3125 C133.75456543 177.64665088 138.37462163 172.23770311 143.09912109 166.85791016 C147.1845058 162.18145882 151.04116607 157.36659389 154.83935547 152.45581055 C158.61022062 147.60491374 162.5719663 142.94121014 166.59130859 138.29541016 C171.14429087 133.03032899 175.55396419 127.65689803 179.9375 122.25 C182.93286798 118.57953962 185.93389714 114.91372344 188.9375 111.25 C189.46005371 110.61255859 189.98260742 109.97511719 190.52099609 109.31835938 C196.99187825 101.42983465 203.48457116 93.56383647 210.09619141 85.79272461 C213.68282788 81.57099625 217.19140826 77.28994431 220.671875 72.98046875 C221.79335937 71.62888672 221.79335937 71.62888672 222.9375 70.25 C223.5882794 69.26756443 223.5882794 69.26756443 224.25220585 68.26528168 C226.66867743 64.94284996 228.55083995 62.62830078 232.60328484 61.5227356 C235.89070348 61.2652488 239.09370611 61.26022295 242.39038086 61.34179688 C243.63010651 61.34062866 244.86983215 61.33946045 246.14712524 61.33825684 C249.53038553 61.34286125 252.90969168 61.38283373 256.2922523 61.4388485 C259.83286312 61.48902148 263.3735325 61.4935709 266.91444397 61.50305176 C273.61187436 61.52787001 280.30825414 61.59345295 287.00522286 61.67384768 C294.6326607 61.7634153 302.26014999 61.80728964 309.8879832 61.84741116 C325.57176293 61.93092538 341.25449574 62.07154457 356.9375 62.25 C354.35464563 66.87898529 351.93574132 70.63026838 348.25 74.5 C344.06464384 78.99130325 340.13214566 83.60629352 336.2734375 88.37890625 C327.03366086 99.73548791 317.38394049 110.76887396 307.828125 121.859375 C302.5420006 128.00063232 297.32325823 134.18182396 292.21484375 140.47265625 C289.19562286 144.15475925 286.11248055 147.78062893 283.02758789 151.40771484 C280.07778692 154.88262479 277.18078348 158.39462023 274.3125 161.9375 C265.22683742 173.06948297 265.22683742 173.06948297 260.9375 177.25 C260.2775 177.25 259.6175 177.25 258.9375 177.25 C258.23882813 176.51265625 257.54015625 175.7753125 256.8203125 175.015625 C253.41869089 171.75228069 250.03336563 169.99895276 245.8125 168 C245.09707031 167.649375 244.38164063 167.29875 243.64453125 166.9375 C235.76497501 163.10818295 227.61810561 160.90846841 218.9375 163.25 C213.87471296 165.99346864 210.10253806 170.57916815 206.25341797 174.77001953 C201.99455031 179.33059065 197.52965835 183.68884168 193.10424805 188.08691406 C191.53337916 189.65419704 189.97131187 191.22971127 188.41210938 192.80859375 C183.10050797 198.17932526 177.71110852 203.37206434 171.9375 208.25 C170.83097173 209.211021 169.72546786 210.17322303 168.62109375 211.13671875 C162.70851146 216.2520584 156.74332161 221.30494899 150.6875 226.25 C150.11473831 226.72384125 149.54197662 227.1976825 148.95185852 227.68588257 C145.61416178 230.36974436 142.36460012 232.6401627 138.52880859 234.55786133 C129.92884806 239.03112447 124.4103529 243.40859133 121.07946777 252.728302 C119.38154904 258.41152658 118.05626855 264.14017819 116.8125 269.9375 C116.52665039 271.15578491 116.24080078 272.37406982 115.94628906 273.62927246 C110.37462728 297.42297027 109.14104729 320.84047425 110.48828125 345.18652344 C110.54495972 346.22555817 110.54495972 346.22555817 110.6027832 347.2855835 C110.99809169 349.60560602 111.69876631 351.25136578 112.9375 353.25 C115.39454762 354.48290201 115.39454762 354.48290201 117.9375 355.25 C118.5975 355.58 119.2575 355.91 119.9375 356.25 C125.47872903 356.61941527 129.22530629 356.53757701 133.9375 353.25 C135.83956849 350.19960779 135.83956849 350.19960779 136.9375 347.25 C135.74125 347.3325 134.545 347.415 133.3125 347.5 C128.74998256 347.4678696 126.43857619 346.29441408 122.9375 343.25 C118.05605018 338.07659744 115.88111929 333.27833675 114.9375 326.25 C115.60394531 325.84910156 116.27039063 325.44820312 116.95703125 325.03515625 C136.32584801 313.08879515 147.33107838 298.52573999 158.4375 279.1875 C161.55515779 273.76871384 164.97095869 268.58559828 168.47460938 263.41186523 C170.73198351 260.07829068 172.90472468 256.72815778 174.9375 253.25 C174.15375 253.146875 173.37 253.04375 172.5625 252.9375 C169.9375 252.25 169.9375 252.25 167.9375 249.25 C167.36145648 245.85774369 167.15627952 243.48509858 169.046875 240.49609375 C170.93507038 238.55648711 172.46417706 237.38089437 174.9375 236.25 C177.00150033 236.27744681 179.06515119 236.36630789 181.125 236.5 C184.65702065 236.40278842 186.95996361 236.21323098 189.5390625 233.671875 C192.9450506 229.25607134 195.69525855 224.42903959 198.49560547 219.61621094 C200.64600995 216.0873047 203.121886 212.85888197 205.6875 209.625 C206.11828857 209.07553711 206.54907715 208.52607422 206.99291992 207.95996094 C207.96894468 206.71896031 208.95227581 205.48370993 209.9375 204.25 C213.44459785 205.35123865 216.5845108 206.51294753 219.75 208.375 C224.08380379 210.62556606 228.12582115 210.8922591 232.9375 210.25 C234.33037806 209.07963695 234.33037806 209.07963695 234.125 205.8125 C234.33314928 202.19967279 234.33314928 202.19967279 231.9375 200.25 C231.9065625 198.39375 231.9065625 198.39375 231.875 196.5 C231.60571066 193.42000312 231.23323759 192.51157093 228.875 190.42578125 C227.23414171 189.36691489 225.56582622 188.34921329 223.87109375 187.37890625 C222.91396484 186.82009766 222.91396484 186.82009766 221.9375 186.25 C221.9375 185.92 221.9375 185.59 221.9375 185.25 C222.75734375 185.09144531 223.5771875 184.93289063 224.421875 184.76953125 C231.18986865 183.43980847 231.18986865 183.43980847 236.6875 179.5625 C237.30625 178.4178125 237.30625 178.4178125 237.9375 177.25 C242.8080356 183.49427641 243.49521988 188.10192669 243.50390625 195.98046875 C244.01920861 199.86612706 245.36320699 201.38004561 247.9375 204.25 C247.9375 204.91 247.9375 205.57 247.9375 206.25 C249.5875 206.25 251.2375 206.25 252.9375 206.25 C253.23280838 212.74678438 252.11043889 218.8721448 250.9375 225.25 C251.52273438 225.26417969 252.10796875 225.27835938 252.7109375 225.29296875 C266.10755217 226.03722512 278.91683667 230.84109212 291.53125 235.11328125 C302.49987539 238.83902216 302.49987539 238.83902216 313.9375 239.25 C315.62741979 238.2898183 317.29959288 237.29644066 318.9375 236.25 C321.47712504 236.39938971 322.62930499 237.02986071 324.6875 238.5 C326.41444408 240.91772171 326.30646705 242.32901086 325.9375 245.25 C324.1875 247.05078125 324.1875 247.05078125 321.9375 248.5625 C321.195 249.07425781 320.4525 249.58601562 319.6875 250.11328125 C319.11 250.48839844 318.5325 250.86351562 317.9375 251.25 C322.41356548 263.58278801 327.34806344 275.71715557 332.32421875 287.85546875 C334.33618355 292.76477739 336.30735779 297.68797937 338.25 302.625 C340.47222564 308.21249263 342.9325401 313.65612133 345.48046875 319.1015625 C346.97018903 322.32063634 348.41190703 325.5536555 349.8125 328.8125 C350.22242188 329.76253906 350.63234375 330.71257812 351.0546875 331.69140625 C351.9375 334.25 351.9375 334.25 351.9375 338.25 C353.9175 338.25 355.8975 338.25 357.9375 338.25 C357.9375 345.78286972 353.97308752 350.90700743 348.9375 356.25 C337.71624488 365.99086062 324.56960495 371.22531094 309.578125 370.6875 C294.25112643 368.84562893 282.12300428 362.18139306 272.2734375 350.09765625 C269.33083431 346.02791558 267.9375 343.2952771 267.9375 338.25 C269.9175 338.25 271.8975 338.25 273.9375 338.25 C274.329375 337.03054688 274.72125 335.81109375 275.125 334.5546875 C277.17608948 328.40860745 279.5554861 322.39893251 281.9375 316.375 C282.41880371 315.15337158 282.90010742 313.93174316 283.39599609 312.6730957 C287.16654703 303.12101793 291.0340627 293.609529 294.92700195 284.10668945 C299.38637658 273.20214384 303.6836311 262.23610653 307.9375 251.25 C278.77728965 243.59324476 278.77728965 243.59324476 248.9375 240.25 C248.66421875 241.054375 248.3909375 241.85875 248.109375 242.6875 C247.72265625 243.533125 247.3359375 244.37875 246.9375 245.25 C243.16160722 246.62305192 241.42142137 246.44542978 237.6875 244.9375 C234.9375 243.25 234.9375 243.25 232.9375 241.25 C223.93330436 239.7903725 210.98141637 242.05790822 202.9375 246.25 C200.7366475 248.47960071 200.7366475 248.47960071 198.8125 251.125 C198.14992188 251.98867188 197.48734375 252.85234375 196.8046875 253.7421875 C196.18851563 254.56976562 195.57234375 255.39734375 194.9375 256.25 C194.36257813 256.95253906 193.78765625 257.65507813 193.1953125 258.37890625 C191.59539795 260.75890336 191.75517576 262.3748325 192.29296875 265.140625 C193.3556904 268.61862313 194.90240751 271.84648141 196.48828125 275.11328125 C198.08210071 278.56297673 199.47534091 282.06535385 200.87329102 285.59790039 C202.95863326 290.79475123 205.20991259 295.92172432 207.44360352 301.05615234 C209.29853889 305.34186119 211.10743044 309.62299749 212.7265625 314.00390625 C215.8411996 322.34439537 219.0476808 328.3601808 225.46484375 334.77734375 C227.83991534 337.15241534 229.88241477 339.59707179 231.9375 342.25 C234.78094174 345.8715264 237.7563816 349.29978663 240.875 352.6875 C254.27049 367.26311818 254.27049 367.26311818 256.9375 373.25 C257.5975 373.25 258.2575 373.25 258.9375 373.25 C260.4609375 374.9453125 260.4609375 374.9453125 262.3125 377.375 C265.7407412 381.77561507 269.28750705 386.03432971 272.9375 390.25 C276.32630864 394.17363531 279.66785239 398.11245621 282.875 402.1875 C286.74886621 407.09011076 290.8343024 411.79263035 294.94018555 416.50048828 C298.56246554 420.65534869 302.14163489 424.84231036 305.6875 429.0625 C308.87448771 432.85078465 312.10885671 436.58495127 315.4375 440.25 C319.01765768 444.20051882 322.53127205 448.20166456 326 452.25 C326.73476562 453.09691406 326.73476562 453.09691406 327.484375 453.9609375 C330.9375 458.0176173 330.9375 458.0176173 330.9375 460.25 C316.15141824 460.57807786 301.36582234 460.82441539 286.57683182 460.97537041 C279.70866987 461.04734968 272.84277799 461.14533411 265.97607422 461.30615234 C259.34309041 461.46142184 252.71183549 461.54208964 246.0769577 461.5782814 C243.55219261 461.60405421 241.02754942 461.65438845 238.50379181 461.73022079 C217.69862727 462.3302206 217.69862727 462.3302206 211.81774902 457.2510376 C209.14690584 454.4185382 207.02421259 451.37559018 205.05086517 448.02777481 C203.88577423 446.16740646 202.58477431 444.57463095 201.14581299 442.91940308 C198.9375 440.25 198.9375 440.25 198.9375 438.25 C198.2775 438.25 197.6175 438.25 196.9375 438.25 C195.41765117 436.57464541 193.97043547 434.83294378 192.5625 433.0625 C191.79164063 432.09957031 191.02078125 431.13664062 190.2265625 430.14453125 C189.47117187 429.18933594 188.71578125 428.23414063 187.9375 427.25 C187.18210937 426.34636719 186.42671875 425.44273437 185.6484375 424.51171875 C183.9375 422.25 183.9375 422.25 183.9375 420.25 C183.2775 420.25 182.6175 420.25 181.9375 420.25 C180.37890625 418.51953125 180.37890625 418.51953125 178.5 416.0625 C175.2987599 411.95404926 172.013839 407.9525449 168.625 404 C164.73180531 399.4438313 160.98336991 394.79931423 157.3125 390.0625 C153.39315244 385.00648613 149.28506897 380.21701027 144.9453125 375.51171875 C142.47064197 372.7241035 140.27785715 369.78891027 138.12890625 366.74609375 C136.99044241 365.10101934 136.99044241 365.10101934 134.9375 364.25 C134.69 364.95125 134.4425 365.6525 134.1875 366.375 C131.19500882 373.25772972 127.07797487 378.12926897 120.375 381.5625 C117.77890706 382.29473134 115.62025254 382.29910196 112.9375 382.25 C112.9876123 382.78850586 113.03772461 383.32701172 113.08935547 383.88183594 C114.29314083 397.03339577 115.2181646 410.18938095 115.9375 423.375 C115.97890106 424.12962524 116.02030212 424.88425049 116.06295776 425.66174316 C116.49813905 433.63070464 116.91117088 441.6004649 117.28646851 449.57247925 C117.44114846 452.84422307 117.60153498 456.11567964 117.76196289 459.387146 C117.86909271 461.62651794 117.96707824 463.86614391 118.06445312 466.10595703 C118.59646574 477.4791206 119.79161958 488.75115851 121.04370117 500.06494141 C122.08172659 509.47352625 123.03346183 518.89047205 123.98046875 528.30859375 C124.11157075 529.61195868 124.11157075 529.61195868 124.24532127 530.94165421 C124.69181674 535.38344693 125.13720345 539.82534952 125.58178711 544.26733398 C126.0400478 548.84445463 126.50154962 553.42124285 126.96372509 557.99796963 C127.32312079 561.56225561 127.68030188 565.12676096 128.03685951 568.69133186 C128.2062923 570.38147174 128.37653584 572.07153056 128.5476284 573.76150322 C128.78433666 576.10176104 129.0179214 578.4423107 129.25073242 580.78295898 C129.3208252 581.46905243 129.39091797 582.15514587 129.46313477 582.86203003 C129.80555264 586.33929487 130.01126174 589.75582252 129.9375 593.25 C126.14432094 594.46923613 122.37775531 594.40153214 118.4375 594.375 C117.73423584 594.37234131 117.03097168 594.36968262 116.30639648 594.36694336 C98.89857599 594.21107599 98.89857599 594.21107599 96.9375 592.25 C96.59500778 589.12046284 96.31353138 586.00499865 96.0703125 582.8671875 C95.99100998 581.885224 95.91170746 580.9032605 95.83000183 579.89154053 C95.56910648 576.63640769 95.31556075 573.38075062 95.0625 570.125 C94.88436381 567.87678996 94.70622248 565.62858033 94.52807617 563.38037109 C93.12840267 545.52544902 91.94454456 527.6591694 90.88916016 509.78076172 C90.83182205 508.83017883 90.77448395 507.87959595 90.71540833 506.90020752 C90.60895922 505.13099557 90.5056267 503.36159213 90.40605164 501.59197998 C90.19051355 498.02727103 89.88043572 494.69328267 88.9375 491.25 C88.19064941 491.61351562 87.44379883 491.97703125 86.67431641 492.3515625 C83.30565581 493.98841362 79.93413089 495.61927656 76.5625 497.25 C75.386875 497.82234375 74.21125 498.3946875 73 498.984375 C71.87851562 499.52578125 70.75703125 500.0671875 69.6015625 500.625 C68.56467285 501.12773438 67.5277832 501.63046875 66.45947266 502.1484375 C63.9375 503.25 63.9375 503.25 61.9375 503.25 C61.93972061 503.80232803 61.94194122 504.35465607 61.94422913 504.92372131 C62.05694086 534.38438709 61.91306976 563.80387971 60.9375 593.25 C55.94495849 594.08915384 51.3375837 594.31265363 46.25390625 594.12890625 C45.55353745 594.10529526 44.85316864 594.08168427 44.13157654 594.05735779 C41.92080278 593.98151403 39.71045205 593.89715561 37.5 593.8125 C35.99025425 593.75919961 34.4804886 593.70645994 32.97070312 593.65429688 C29.29271637 593.5260085 25.61505841 593.39008839 21.9375 593.25 C21.72222414 583.92857972 22.35102765 574.91379574 23.46875 565.6640625 C23.62645369 564.30944518 23.78337933 562.95473708 23.9395752 561.59994507 C24.34762229 558.07405598 24.76374368 554.54917547 25.18243408 551.02453613 C25.85399221 545.36506395 26.51589679 539.70448103 27.17222595 534.04322433 C27.40117242 532.08254642 27.63564352 530.12251611 27.87023926 528.1625061 C28.53319719 522.49158607 29.14468515 516.96133339 28.9375 511.25 C13.47532212 518.06568451 -1.49627069 525.20148494 -9.0625 541.25 C-9.97999983 544.28853575 -10.54761163 547.35687344 -11.09765625 550.48046875 C-11.34484657 551.78797844 -11.34484657 551.78797844 -11.59703064 553.12190247 C-12.11851064 555.89166445 -12.62254858 558.66422916 -13.125 561.4375 C-13.63425163 564.19220956 -14.14725372 566.94616596 -14.66368103 569.69953918 C-14.98250014 571.40508472 -15.29682484 573.11147997 -15.60548401 574.81889343 C-16.82022288 581.40653979 -18.42734913 587.70939653 -20.0625 594.25 C-59.3325 594.25 -98.6025 594.25 -139.0625 594.25 C-138.38064912 588.1133421 -137.56456397 582.26064863 -136.3125 576.25 C-136.1376709 575.3852002 -135.9628418 574.52040039 -135.78271484 573.62939453 C-134.85238935 569.03494246 -133.89162339 564.44844397 -132.8984375 559.8671875 C-125.89673409 527.01831459 -122.34959489 493.40756898 -118.0773468 460.11958313 C-117.37792743 454.67546629 -116.66523147 449.23336833 -115.9375 443.79296875 C-113.96131535 428.93526734 -112.2645071 414.07110955 -110.74960327 399.16043091 C-109.6973052 388.80561504 -108.55554066 378.49291713 -106.83764648 368.22216797 C-106.20924559 364.30572273 -105.80497178 361.05713212 -107.0625 357.25 C-107.784375 356.30125 -108.50625 355.3525 -109.25 354.375 C-111.97301836 350.77871045 -113.64806372 346.84985509 -115.3125 342.6875 C-115.6995813 341.73157959 -115.6995813 341.73157959 -116.09448242 340.75634766 C-121.02718765 328.08069049 -120.99219673 310.92403878 -116.0625 298.25 C-113.12881179 291.59067719 -109.97243 285.01138481 -105.828125 279.01953125 C-102.93452013 274.48066875 -103.77162458 270.12978959 -104.55761719 265.05029297 C-105.04049756 261.41561414 -105.26494388 257.88573235 -105.37890625 254.22265625 C-105.42080078 252.93681641 -105.46269531 251.65097656 -105.50585938 250.32617188 C-105.545657 248.98828375 -105.58536951 247.65039309 -105.625 246.3125 C-105.66826654 244.94725438 -105.71188321 243.58201982 -105.75585938 242.21679688 C-105.86151153 238.89462348 -105.96361395 235.57238054 -106.0625 232.25 C-106.45711678 233.03923355 -106.85173355 233.8284671 -107.25830841 234.64161682 C-178.11715698 376.35931396 -178.11715698 376.35931396 -179.13882351 378.40259361 C-179.79901462 379.72301107 -180.4591498 381.0434565 -181.1192255 382.36393166 C-182.81601404 385.75816038 -184.51398016 389.15179339 -186.21363831 392.54458618 C-186.56958745 393.25549754 -186.9255366 393.9664089 -187.29227209 394.69886303 C-187.964348 396.0410959 -188.6367654 397.38315787 -189.30961466 398.72500324 C-192.67504125 405.44814066 -195.93452655 412.22190653 -199.1875 419 C-203.40673238 427.7871423 -207.6858694 436.53996082 -212.0625 445.25 C-212.7576473 446.64917533 -213.45181111 448.04884017 -214.14453125 449.44921875 C-214.71558594 450.60035156 -215.28664063 451.75148438 -215.875 452.9375 C-216.45894531 454.11699219 -217.04289063 455.29648437 -217.64453125 456.51171875 C-219.0625 459.25 -219.0625 459.25 -220.0625 460.25 C-223.07600238 460.34529612 -226.06654106 460.37551904 -229.08032227 460.36352539 C-230.02656464 460.36367142 -230.97280701 460.36381744 -231.94772339 460.3639679 C-235.09147392 460.36326836 -238.23516601 460.35547409 -241.37890625 460.34765625 C-243.55224068 460.34579221 -245.72557552 460.34436824 -247.89891052 460.34336853 C-253.63151195 460.33954221 -259.36408823 460.32971097 -265.09667969 460.31866455 C-270.94140279 460.30845287 -276.78612993 460.30387143 -282.63085938 460.29882812 C-294.108084 460.2880888 -305.58528991 460.27101102 -317.0625 460.25 C-316.33245085 457.1700082 -315.35302453 454.53071011 -313.98046875 451.671875 C-313.54919678 450.77049805 -313.1179248 449.86912109 -312.67358398 448.94042969 C-312.20380127 447.97008789 -311.73401855 446.99974609 -311.25 446 C-310.51728882 444.47874512 -310.51728882 444.47874512 -309.76977539 442.92675781 C-302.29073561 427.45255433 -294.61613619 412.08325386 -286.56567383 396.89819336 C-283.00489517 390.17402839 -279.58937124 383.38457947 -276.2109375 376.56738281 C-267.94319354 359.8842566 -259.53846992 343.2952714 -250.72265625 326.89453125 C-246.63791786 319.27425571 -242.77290685 311.60794318 -239.14746094 303.75854492 C-236.2707762 297.57960113 -233.12058933 291.56603418 -229.91650391 285.55175781 C-226.85169121 279.78696324 -223.89966407 273.97445831 -221 268.125 C-217.89672302 261.86946602 -214.72709746 255.65965411 -211.4375 249.5 C-207.16136322 241.48944477 -203.09222357 233.38669424 -199.0625 225.25 C-193.81478254 214.66176334 -188.50164094 204.12199568 -182.95800781 193.68530273 C-178.97760199 186.15892839 -175.19121687 178.53939371 -171.40527344 170.91381836 C-167.92751618 163.92715129 -164.32957043 157.02331238 -160.5859375 150.17578125 C-158.85216925 146.96437737 -158.85216925 146.96437737 -157.0625 142.25 C-221.0825 142.25 -285.1025 142.25 -351.0625 142.25 C-351.0625 80.08776596 -351.0625 80.08776596 -350.0625 62.25 C-323.39163931 61.47148309 -296.76267206 61.13534461 -270.08179617 61.35053515 C-265.51363764 61.38594657 -260.94543178 61.41382031 -256.37722778 61.44264221 C-247.80438036 61.49780013 -239.231592 61.5593102 -230.65880692 61.62336355 C-220.86603371 61.69620337 -211.07321447 61.76156427 -201.28038573 61.82643402 C-181.20769734 61.95956017 -161.13508117 62.10163296 -141.0625 62.25 C-140.59053928 64.43997354 -140.11933528 66.63011016 -139.6484375 68.8203125 C-139.38595215 70.03992676 -139.1234668 71.25954102 -138.85302734 72.51611328 C-138.10533482 76.04767891 -137.39241973 79.58469436 -136.6875 83.125 C-132.28946091 103.52005174 -123.70175561 122.36425252 -115.0625 141.25 C-114.4025 141.25 -113.7425 141.25 -113.0625 141.25 C-101.61089882 121.08873031 -90.78081256 97.07680165 -93.0625 73.25 C-93.97364536 69.92813829 -93.97364536 69.92813829 -95.0625 67.25 C-95.0625 65.6 -95.0625 63.95 -95.0625 62.25 C-80.5425 62.25 -66.0225 62.25 -51.0625 62.25 C-52.5475 58.785 -52.5475 58.785 -54.0625 55.25 C-55.57568691 43.7715912 -53.19687478 31.65025306 -46.51171875 22.07421875 C-34.92658013 7.49130841 -18.36413179 0.09339673 0 0 Z " fill="#14324F" transform="translate(487.0625,493.75)"/>
<path d="M0 0 C0.99 0.33 1.98 0.66 3 1 C2.67 1.66 2.34 2.32 2 3 C1.67 3 1.34 3 1 3 C1.19623047 5.2575 1.19623047 5.2575 1.625 7.5 C1.7103125 8.169375 1.795625 8.83875 1.875 9.5 C2.4375 10.125 2.4375 10.125 3.0625 10.75 C5.00847986 12.35515234 5.00847986 12.35515234 7 13 C7.125 14.5625 7.125 14.5625 7 16 C6.34 16 5.68 16 5 16 C4.94523438 18.06492188 4.94523438 18.06492188 5 20 C5.33 20 5.66 20 6 20 C6 21.65 6 23.3 6 25 C3.04 25.33 -0.88 25.66 -5 26 C-4.01 26 -3.02 26 -2 26 C-2 25.34 -2 24.68 -2 24 C-2.66 24 -3.32 24 -4 24 C-4.14992188 23.00375 -4.29984375 22.0075 -4.453125 21 C-5.46554807 19.34969248 -6.34863339 17.81881822 -7.125 16.125 C-7.96226563 14.33125 -8.82671875 12.515625 -9.7109375 10.6875 C-11.45890919 7.08630048 -11.96803704 5.37877685 -11 2 C-10.67 1.34 -10.34 0.68 -10 0 C-6.7 0 -3.4 0 0 0 Z " fill="#1466A3" transform="translate(560,547)"/>
<path d="M0 0 C0.33 0 0.66 0 1 0 C0.33 11.22 0.33 11.22 -2 15 C-2 14.01 -2 13.02 -2 12 C-1.34 8.71 -0.68 5.42 0 2 C0 1.34 0 0.68 0 0 Z " fill="#224564" transform="translate(393,640)"/>
<path d="M0 0 C1.32 0.66 2.64 1.32 4 2 C3.1678125 3.324375 2.335625 4.64875 1.5 6 C-1.14945326 6.00482276 -3.80556551 6.00344406 -6.5625 6 C-6.2325 4.68 -5.9025 3.36 -5.5625 2.0625 C-4.04169992 0.70617309 -2.51869389 0.17066046 0 0 Z " fill="#14395A" transform="translate(738,735)"/>
<path d="M0 0 C1.32 0 2.64 0 4 0 C4 2.64 4 5.28 4 8 C4.66 8.33 5.32 8.66 6 9 C5.01 9 4.02 9 3 9 C2.34 7.68 1.68 6.36 1 5 C0.34 5 -0.32 5 -1 5 C-1.09458984 3.73816406 -1.18917969 2.47632812 -1.28515625 1.1875 C-1.12351562 0.795625 -0.961875 0.40375 -0.8125 0 C-0.5425 0 -0.2725 0 0 0 Z " fill="#1468A6" transform="translate(422,357)"/>
<path d="M0 0 C2 1 2 1 3.25 3.375 C3.8328125 4.3540625 3.8328125 4.3540625 4.4375 5.375 C5.626875 6.90875 6.81625 8.4425 8 10 C8.33 10.66 8.66 11.32 9 12 C9 12.66 9 13.32 9 14 C8.01 14.33 7.02 14.66 6 15 C5.67 14.01 5.34 13.02 5 12 C4.01 10.02 3.02 8.04 2 6 C1.34 6 0.68 6 0 6 C0 4.02 0 2.04 0 0 Z " fill="#B6ABAE" transform="translate(600,1217)"/>
<path d="M0 0 C-0.33 1.32 -0.66 2.64 -1 4 C-1 4.66 -1 5.32 -1 6 C-1.66 6 -2.32 6 -3 6 C-3 4.68 -3 3.36 -3 2 C-2.01 2.33 -1.02 2.66 0 3 C0 2.01 0 1.02 0 0 Z " fill="#BDADAF" transform="translate(591,1185)"/>
<path d="M0 0 C0.33 0 0.66 0 1 0 C1.1565625 2.18125 1.1565625 2.18125 1.3125 4.375 C1.46743936 6.31289139 1.46743936 6.31289139 1.3125 9.0625 C1.0028125 11.020625 0.50625 12.215625 -1 14 C-1 12.02 -1 10.04 -1 8 C-1.12375 5.81625 -1.2475 3.6325 -1.375 1.4375 C-1.29990886 0.96328328 -1.14589255 0.49079545 0 0 Z " fill="#B7ABAD" transform="translate(511,1180)"/>
<path d="M0 0 C1.01183594 1.18957031 1.01183594 1.18957031 2.03125 2.375 C3.38792688 3.88241476 4.73359695 5.39413248 6.078125 6.90625 C6.9934375 7.9171875 7.90875 8.928125 8.84375 9.96875 C9.75546875 10.9859375 9.75546875 10.9859375 10.6875 12 C10.94165625 12.35515625 11.1958125 12.7103125 11.45898438 13.08203125 C12.35414434 14.12061033 13.24584288 15.15872911 14.125 16.1875 C15.42171875 17.5875 15.42171875 17.5875 16.71875 19 C15.864375 19.3496875 15.01 19.699375 14.125 20.0625 C12.7937402 20.67280848 11.46416174 21.28014545 10.13671875 21.88671875 C8.93299805 22.42777344 7.72927734 22.96882813 6.49609375 23.49609375 C3.97864197 24.58288599 1.46747447 25.68884974 -1.0625 26.8125 C-1.3925 25.8225 -1.7225 24.8325 -2.0625 23.8125 C-3.37446738 20.31682333 -4.68069502 16.82883391 -6 13.3125 C-6.84497672 10.74100572 -7.70203009 8.16682705 -8.5625 5.59375 C-8.6796875 5.17625 -8.796875 4.75875 -8.91796875 4.3125 C-11.20015568 2.05268481 -11.20015568 2.05268481 -13 0 C-8.66666667 0 -4.33333333 0 0 0 Z " fill="#156499" transform="translate(684,726)"/>
<path d="M0 0 C-0.33 0.66 -0.66 1.32 -1 2 C-2.40450532 5.09706346 -2.40450532 5.09706346 -5.375 7.1875 C-7.9625 9.0625 -7.9625 9.0625 -10 10 C-10 8.35 -10 6.7 -10 5 C-9.34 5.33 -8.68 5.66 -8 6 C-7.0625 3.9375 -7.0625 3.9375 -5 2 C-4.01 1.34 -3.02 0.68 -2 0 C-1.34 0 -0.68 0 0 0 Z " fill="#146095" transform="translate(489,510)"/>
<path d="M0 0 C-0.215625 2.1725 -0.43125 4.345 -0.65625 6.5625 C-0.89360352 8.92292969 -1.13402344 11.28292969 -1.375 13.625 C-1.89746094 17.65365234 -1.89746094 17.65365234 -2 21 C-2.99 21.99 -3.98 22.98 -5 24 C-3.83226346 17.37877239 -2.31173977 11.29424794 -0.375 4.8125 C-0.125 3.25 -0.125 3.25 0 0 Z " fill="#1C3F5D" transform="translate(466,610)"/>
<path d="M0 0 C1.64 0 3.28 0 5 0 C5 0.99 5 1.98 5 3 C4.01 3.33 3.02 3.66 2 4 C1.34 2.68 0.68 1.36 0 0 Z " fill="#0E5487" transform="translate(562,721)"/>
<path d="M0 0 C0.33 0 0.66 0 1 0 C1.125 4.75 1.125 4.75 0 7 C-0.33 7 -0.66 7 -1 7 C-1.48802875 5.56845347 -1.69172288 4.25055054 -1.8125 2.875 C-1.875 1.9375 -1.875 1.9375 -2 1 C-1.34 0.67 -0.68 0.34 0 0 Z " fill="#244460" transform="translate(416,569)"/>
<path d="M0 0 C3 1 3 1 4 3 C4 4.32 4 5.64 4 7 C3.01 6.67 2.02 6.34 1 6 C0.34 4.02 -0.32 2.04 -1 0 C-0.67 0 -0.34 0 0 0 Z " fill="#0F3456" transform="translate(356,532)"/>
<path d="M0 0 C1.65 0 3.3 0 5 0 C5 0.66 5 1.32 5 2 C3.35 2 1.7 2 0 2 C0 1.34 0 0.68 0 0 Z " fill="#B6ABAD" transform="translate(663,1217)"/>
<path d="M0 0 C0.66 0 1.32 0 2 0 C1.34 1.32 0.68 2.64 0 4 C0 2.68 0 1.36 0 0 Z " fill="#214261" transform="translate(432,586)"/>
<path d="M0 0 C0.66 0.66 1.32 1.32 2 2 C1.34 2 0.68 2 0 2 C0 1.34 0 0.68 0 0 Z " fill="#052445" transform="translate(488,521)"/>
<path d="M0 0 C1.32 0 2.64 0 4 0 C4 0.66 4 1.32 4 2 C2.68 2 1.36 2 0 2 C0 1.34 0 0.68 0 0 Z " fill="#14669F" transform="translate(309,235)"/>
<path d="M0 0 C1 3 1 3 -0.25 5.5 C-0.6640625 6.015625 -1.078125 6.53125 -1.5 7 C-1.5 6.34 -1.5 5.68 -1.5 5 C-1.17 3.02 -0.84 1.04 -0.5 0 C-0.33 0 -0.17 0 0 0 Z " fill="#011F3C" transform="translate(565.5,595)"/>
<path d="M0 0 C0 1.65 0 3.3 0 5 C-0.99 5 -1.98 5 -3 5 C-3 4.34 -3 3.68 -3 3 C-2.34 3 -1.68 3 -1 3 C-1 2.34 -1 1.68 -1 1 C-0.67 0.67 -0.34 0.34 0 0 Z " fill="#1467A3" transform="translate(345,432)"/>
<path d="M0 0 C0.33 0 0.66 0 1 0 C0.71875 1.0825 0.4375 2.165 0.125 3.25 C0.0528125 3.5134375 -0.01953125 3.776875 -0.1015625 4.0625 C-0.58300781 5.3121875 -0.58300781 5.3121875 -1 6 C-1.99 6 -2.98 6 -4 6 C-4 5.34 -4 4.68 -4 4 C-3.01 4 -2.02 4 -1 4 C-1 2.68 -1 1.36 -1 0 C-0.67 0 -0.34 0 0 0 Z " fill="#15649B" transform="translate(528,574)"/>
<path d="M0 0 C0.33 0.66 0.66 1.32 1 2 C0.01 2.33 -0.98 2.66 -2 3 C-2.33 2.01 -2.66 1.02 -3 0 C-2.01 0 -1.02 0 0 0 Z " fill="#0D5589" transform="translate(427,330)"/>
</svg>
